<svg width="151" height="41" viewBox="0 0 151 41" fill="none" xmlns="http://www.w3.org/2000/svg">
<g id="Group 1">
<path id="Vector" d="M28.464 0.843658C27.5499 -0.0680033 26.0672 -0.0680033 25.1544 0.843658C23.5921 2.40631 19.7721 6.44734 15.2944 7.5751C10.8532 8.83792 5.52355 7.2496 3.39006 6.67829C2.14102 6.34334 0.858221 7.08483 0.526044 8.33279C0.188466 9.58211 0.931137 10.8665 2.17883 11.2015C4.31367 11.7728 9.72033 13.0626 12.9341 16.377C16.2477 19.5915 17.5386 25.0034 18.1125 27.1387C18.4434 28.3867 19.7302 29.1281 20.9765 28.7932C22.2242 28.4582 22.9669 27.1738 22.632 25.9258C22.0608 23.7892 20.4715 18.461 21.7354 14.0189C22.8643 9.54159 26.9031 5.71666 28.4627 4.1567C29.3782 3.24234 29.3782 1.75937 28.4627 0.84501L28.464 0.843658Z" fill="#FFFFFF"/>
<g id="Group">
<path id="Vector_2" d="M45.767 20.121H38.7453L37.9716 22.5967L38.4672 23.0923H39.7972V25.722H32.4353V23.0923H33.5183L34.0746 22.5359L40.6331 4.00146H45.0256L51.8933 22.598L52.4186 23.0937H53.5015V25.7233H45.0567V23.0937H46.1707L46.6352 22.598L45.7696 20.1223L45.767 20.121ZM39.673 17.1821H44.7151L42.086 9.63216L39.673 17.1821Z" fill="#FFFFFF"/>
<path id="Vector_3" d="M59.7494 11.9524V22.6897L60.3057 23.2462H63.3061V25.7219C63.3061 25.7219 61.3266 26.0311 59.1296 26.0311C56.4384 26.0311 55.0463 25.0412 55.0463 22.1941V11.9524H53.1288V9.38353H54.4899L55.0463 8.82707L56.8098 4.98999H59.7481V9.38353H63.213V11.9524H59.7481H59.7494Z" fill="#FFFFFF"/>
<path id="Vector_4" d="M70.9786 23.2463H72.7111V25.7219H63.8328V23.2463H65.1939L65.7502 22.6898V12.5103L65.1939 11.9538H63.8328V9.32418H68.752C69.9888 9.32418 70.1752 10.036 70.1752 10.6856V11.5216H70.2684C70.7018 10.9341 72.3411 9.01489 74.7852 9.01489C75.4036 9.01489 76.022 9.10809 76.022 9.10809V15.5748H73.1756V13.4084L72.649 12.9128C71.6902 13.0991 70.8854 13.5003 70.452 13.7488V22.6912L70.9773 23.2476L70.9786 23.2463Z" fill="#FFFFFF"/>
<path id="Vector_5" d="M92.0152 25.7218H87.1582C85.9213 25.7218 85.7349 25.0101 85.7349 24.3604V23.7729H85.5796C85.0544 24.4536 83.5069 26.0311 81.2492 26.0311C77.9085 26.0311 76.4853 23.9269 76.4853 21.2972C76.4853 18.1098 78.6201 16.3459 81.9919 16.3459H85.4568V15.0155C85.4568 13.2206 85.3636 11.9213 82.7035 11.9213C82.3011 11.9213 81.8379 11.9524 81.3424 12.0145L80.8778 12.4791V14.5523H77.8774V10.0034C79.2696 9.60094 81.5273 9.01343 84.3117 9.01343C88.7353 9.01343 90.0964 11.3959 90.0964 14.2741V22.6897L90.6528 23.2462H92.0139V25.7218H92.0152ZM85.4568 21.6376V18.9769H83.2598C81.7745 18.9769 81.125 19.5955 81.125 20.7718C81.125 21.8861 81.6205 22.5357 83.0735 22.5357C84.0943 22.5357 84.9909 21.9793 85.4554 21.6389L85.4568 21.6376Z" fill="#FFFFFF"/>
<path id="Vector_6" d="M104.606 25.722C103.369 25.722 103.182 25.0102 103.182 24.3606V23.7731H103.089C102.193 25.0102 100.738 26.0623 98.5723 26.0623C95.2627 26.0623 92.6944 23.2463 92.6944 17.7385C92.6944 12.2308 95.6948 9.0136 99.2529 9.0136C100.769 9.0136 102.037 9.75643 102.903 10.6222V6.32183L102.346 5.76538H100.985V3.13574H106.183C107.42 3.13574 107.606 3.84751 107.606 4.49716V22.6912L108.162 23.2477H109.523V25.7233H104.604L104.606 25.722ZM102.904 21.7917V13.3761C102.161 12.6954 101.327 12.355 100.398 12.355C98.5413 12.355 97.6136 13.9015 97.6136 17.6764C97.6136 21.4514 98.5413 22.5967 100.46 22.5967C101.11 22.5967 102.037 22.4116 102.904 21.7917Z" fill="#FFFFFF"/>
<path id="Vector_7" d="M115.403 9.32278C116.64 9.32278 116.826 10.0346 116.826 10.6842V22.6898L117.352 23.2462H118.745V25.7219H110.207V23.2462H111.568L112.124 22.6898V12.5102L111.568 11.9538H110.207V9.32413H115.404L115.403 9.32278ZM114.197 2.66968C115.96 2.66968 116.826 3.62861 116.826 5.14535C116.826 6.66208 115.96 7.62102 114.197 7.62102C112.433 7.62102 111.568 6.66208 111.568 5.14535C111.568 3.62861 112.433 2.66968 114.197 2.66968Z" fill="#FFFFFF"/>
<path id="Vector_8" d="M133.375 9.32275C134.612 9.32275 134.799 10.0345 134.799 10.6842V22.6897L135.355 23.2462H136.716V25.7219H131.797C130.56 25.7219 130.374 25.0101 130.374 24.3604V23.804H130.28C129.693 24.4847 128.177 26.0325 125.826 26.0325C122.145 26.0325 121.062 23.804 121.062 21.0812V12.5102L120.505 11.9537H119.144V9.32411H124.342C125.579 9.32411 125.765 10.1291 125.765 10.8408V20.3397C125.765 21.2676 125.858 22.5371 127.651 22.5371C128.734 22.5371 129.6 22.0414 130.095 21.7011V12.5115L129.539 11.9551H128.178V9.32546H133.375V9.32275Z" fill="#FFFFFF"/>
<path id="Vector_9" d="M143.212 26.0311C139.841 26.0311 137.737 25.3193 137.737 25.3193V20.7097H140.49V22.5357L141.015 23.0922C141.634 23.1854 142.314 23.2475 143.15 23.2475C144.821 23.2475 145.563 22.3818 145.563 21.5147C145.563 20.4004 145.192 20.029 142.625 19.3172C138.758 18.234 137.768 16.3162 137.768 14.0566C137.768 11.1177 140.397 9.01343 144.636 9.01343C147.296 9.01343 149.493 9.53881 149.493 9.53881V14.0255H146.739V12.417L146.214 11.9213C145.719 11.8281 145.162 11.766 144.575 11.766C143.058 11.766 142.162 12.3846 142.162 13.3435C142.162 14.1484 142.378 14.7049 144.606 15.3545C148.534 16.5309 150.175 17.706 150.175 20.522C150.175 24.0498 147.205 26.0298 143.214 26.0298L143.212 26.0311Z" fill="#FFFFFF"/>
</g>
<g id="Group_2">
<path id="Vector_10" d="M32.438 38.1098H33.0215L33.1538 37.9855V32.9653L33.0215 32.841H32.438V32.3818H33.9493L35.77 35.6881L37.6081 32.3818H39.0573V32.841H38.4658L38.3415 32.9653V37.9855L38.4563 38.1098H39.0573V38.569H36.8207V38.1098H37.4042L37.5366 37.9855V33.6892L35.9185 36.5444H35.3702L33.8143 33.7595V37.9842L33.9385 38.1084H34.5301V38.5676H32.4353V38.1084L32.438 38.1098Z" fill="#333333"/>
<path id="Vector_11" d="M43.9625 38.5689H42.8577C42.566 38.5689 42.4863 38.419 42.4863 38.215V37.9584H42.4593C42.2121 38.2501 41.7786 38.6567 41.0898 38.6567C40.1795 38.6567 39.7284 38.0556 39.7284 37.3223C39.7284 36.439 40.3645 35.9609 41.187 35.9609H42.4417V35.4571C42.4417 34.8466 42.2999 34.3428 41.4612 34.3428C41.187 34.3428 40.9223 34.4131 40.7102 34.4752L40.586 34.59V35.3234H40.0201V34.1389C40.3915 34.0065 40.948 33.8296 41.6813 33.8296C42.8739 33.8296 43.2453 34.5103 43.2453 35.3328V37.9935L43.3696 38.1353H43.9612V38.5689H43.9625ZM42.4417 37.4911V36.4835H41.3896C40.8858 36.4835 40.5414 36.6875 40.5414 37.2966C40.5414 37.7477 40.7008 38.0394 41.3639 38.0394C41.7435 38.0394 42.1243 37.8098 42.4417 37.4911Z" fill="#333333"/>
<path id="Vector_12" d="M44.3329 38.5689V38.1353H44.9164L45.0406 38.003V34.5116L44.9164 34.3793H44.3329V33.9201H45.4296C45.7214 33.9201 45.8091 34.07 45.8091 34.2739V34.5211H45.8267C46.0914 34.2294 46.5952 33.8323 47.2678 33.8323C48.2754 33.8323 48.6292 34.4684 48.6292 35.2464V38.0043L48.7616 38.1367H49.345V38.5702H47.1706V38.1367H47.7013L47.8256 38.0043V35.3706C47.8256 34.9114 47.7013 34.4603 47.0652 34.4603C46.606 34.4603 46.2251 34.6278 45.8456 35.0262V38.0043L45.978 38.1367H46.5088V38.5702H44.3343L44.3329 38.5689Z" fill="#333333"/>
<path id="Vector_13" d="M54.0629 38.5689H52.9581C52.6663 38.5689 52.5866 38.419 52.5866 38.215V37.9584H52.5596C52.3125 38.2501 51.8789 38.6567 51.1901 38.6567C50.2798 38.6567 49.8287 38.0556 49.8287 37.3223C49.8287 36.439 50.4648 35.9609 51.2874 35.9609H52.5421V35.4571C52.5421 34.8466 52.4003 34.3428 51.5615 34.3428C51.2874 34.3428 51.0226 34.4131 50.8106 34.4752L50.6863 34.59V35.3234H50.1204V34.1389C50.4918 34.0065 51.0483 33.8296 51.7817 33.8296C52.9743 33.8296 53.3457 34.5103 53.3457 35.3328V37.9935L53.4699 38.1353H54.0615V38.5689H54.0629ZM52.5421 37.4911V36.4835H51.4899C50.9862 36.4835 50.6418 36.6875 50.6418 37.2966C50.6418 37.7477 50.8011 38.0394 51.4643 38.0394C51.8438 38.0394 52.2247 37.8098 52.5421 37.4911Z" fill="#333333"/>
<path id="Vector_14" d="M56.4132 36.8281C56.131 36.8281 55.8568 36.7929 55.6272 36.7038C55.4057 36.8105 55.2828 36.9604 55.2828 37.1373C55.2828 37.367 55.4246 37.5088 55.8392 37.5088H57.2263C58.0664 37.5088 58.6674 37.8883 58.6674 38.6041C58.6674 39.6292 57.6072 40.16 56.316 40.16C55.1315 40.16 54.4157 39.8858 54.4157 39.17C54.4157 38.6217 54.8128 38.3299 55.1491 38.1706C54.7952 38.0463 54.5751 37.7721 54.5751 37.4196C54.5751 37.0671 54.8047 36.7389 55.2463 36.5174C54.8749 36.2703 54.6453 35.8813 54.6453 35.3248C54.6453 34.2997 55.4503 33.8311 56.4132 33.8311C56.6523 33.8311 56.8819 33.8662 57.094 33.9188H58.658V34.3781H57.88L57.8624 34.3956C58.0745 34.6252 58.1987 34.9345 58.1987 35.3235C58.1987 36.3405 57.3681 36.8267 56.4132 36.8267V36.8281ZM55.6272 38.234C55.4597 38.3137 55.1315 38.5528 55.1315 39.012C55.1315 39.4712 55.5029 39.7008 56.3687 39.7008C57.2344 39.7008 57.9151 39.4536 57.9151 38.8081C57.9151 38.4191 57.668 38.234 57.0669 38.234H55.6258H55.6272ZM56.4132 34.2741C55.8298 34.2741 55.4057 34.6185 55.4057 35.3262C55.4057 36.0339 55.8298 36.3864 56.4132 36.3864C56.9967 36.3864 57.4303 36.042 57.4303 35.3262C57.4303 34.6104 56.9967 34.2741 56.4132 34.2741Z" fill="#333333"/>
<path id="Vector_15" d="M60.3628 33.9202C60.645 33.9202 60.7247 34.0702 60.7247 34.2741V38.0045L60.849 38.1369H61.4405V38.5704H59.2039V38.1369H59.7955L59.9198 38.0045V34.5132L59.7955 34.3808H59.2039V33.9216H60.3614L60.3628 33.9202ZM60.2385 32.1172C60.5572 32.1172 60.7328 32.3022 60.7328 32.5858C60.7328 32.8695 60.5559 33.0626 60.2385 33.0626C59.9211 33.0626 59.7428 32.8681 59.7428 32.5858C59.7428 32.3036 59.9103 32.1172 60.2385 32.1172Z" fill="#333333"/>
<path id="Vector_16" d="M61.9005 38.5689V38.1353H62.4839L62.6082 38.003V34.5116L62.4839 34.3793H61.9005V33.9201H62.9972C63.2889 33.9201 63.3767 34.07 63.3767 34.2739V34.5211H63.3942C63.659 34.2294 64.1627 33.8323 64.8353 33.8323C65.8429 33.8323 66.1968 34.4684 66.1968 35.2464V38.0043L66.3291 38.1367H66.9126V38.5702H64.7381V38.1367H65.2689L65.3931 38.0043V35.3706C65.3931 34.9114 65.2689 34.4603 64.6327 34.4603C64.1735 34.4603 63.7927 34.6278 63.4131 35.0262V38.0043L63.5455 38.1367H64.0763V38.5702H61.9018L61.9005 38.5689Z" fill="#333333"/>
<path id="Vector_17" d="M69.2885 36.8281C69.0062 36.8281 68.732 36.7929 68.5024 36.7038C68.2809 36.8105 68.158 36.9604 68.158 37.1373C68.158 37.367 68.2998 37.5088 68.7145 37.5088H70.1016C70.9416 37.5088 71.5427 37.8883 71.5427 38.6041C71.5427 39.6292 70.4824 40.16 69.1912 40.16C68.0068 40.16 67.2909 39.8858 67.2909 39.17C67.2909 38.6217 67.688 38.3299 68.0243 38.1706C67.6705 38.0463 67.4503 37.7721 67.4503 37.4196C67.4503 37.0671 67.6799 36.7389 68.1216 36.5174C67.7501 36.2703 67.5205 35.8813 67.5205 35.3248C67.5205 34.2997 68.3255 33.8311 69.2885 33.8311C69.5275 33.8311 69.7572 33.8662 69.9692 33.9188H71.5332V34.3781H70.7552L70.7377 34.3956C70.9497 34.6252 71.074 34.9345 71.074 35.3235C71.074 36.3405 70.2434 36.8267 69.2885 36.8267V36.8281ZM68.5024 38.234C68.335 38.3137 68.0068 38.5528 68.0068 39.012C68.0068 39.4712 68.3782 39.7008 69.2439 39.7008C70.1097 39.7008 70.7904 39.4536 70.7904 38.8081C70.7904 38.4191 70.5432 38.234 69.9422 38.234H68.5011H68.5024ZM69.2885 34.2741C68.705 34.2741 68.2809 34.6185 68.2809 35.3262C68.2809 36.0339 68.705 36.3864 69.2885 36.3864C69.872 36.3864 70.3055 36.042 70.3055 35.3262C70.3055 34.6104 69.872 34.2741 69.2885 34.2741Z" fill="#333333"/>
<path id="Vector_18" d="M75.2177 38.1368H75.8984V38.5703H73.574V38.1368H74.1574L74.2817 38.0044V34.5131L74.1574 34.3807H73.574V33.9215H74.6707C74.9624 33.9215 75.0502 34.0714 75.0502 34.2754V34.5496H75.0677C75.2447 34.3456 75.7485 33.8337 76.4913 33.8337C76.6331 33.8337 76.7304 33.8513 76.81 33.8607V35.3194H76.3063V34.6563L76.1739 34.532C75.6782 34.5671 75.2987 34.8237 75.0867 35.0533V38.0058L75.219 38.1381L75.2177 38.1368Z" fill="#333333"/>
<path id="Vector_19" d="M78.461 33.9202C78.7433 33.9202 78.823 34.0702 78.823 34.2741V38.0045L78.9472 38.1369H79.5388V38.5704H77.3022V38.1369H77.8937L78.018 38.0045V34.5132L77.8937 34.3808H77.3022V33.9216H78.4596L78.461 33.9202ZM78.3367 32.1172C78.6555 32.1172 78.8311 32.3022 78.8311 32.5858C78.8311 32.8695 78.6541 33.0626 78.3367 33.0626C78.0193 33.0626 77.8411 32.8681 77.8411 32.5858C77.8411 32.3036 78.0085 32.1172 78.3367 32.1172Z" fill="#333333"/>
<path id="Vector_20" d="M81.5898 38.658C80.697 38.658 80.1405 38.4635 80.1405 38.4635V37.3587H80.6619V37.9597L80.7767 38.084C80.9712 38.1191 81.2453 38.1542 81.6249 38.1542C82.2434 38.1542 82.65 37.8625 82.65 37.3587C82.65 36.9252 82.3934 36.705 81.5627 36.5011C80.4674 36.2269 80.1757 35.7501 80.1757 35.1316C80.1757 34.3536 80.8213 33.8323 81.9261 33.8323C82.6689 33.8323 83.2253 33.9822 83.2253 33.9822V35.0775H82.704V34.486L82.5973 34.3887C82.4379 34.3536 82.1908 34.3185 81.8896 34.3185C81.2616 34.3185 80.909 34.6008 80.909 35.0168C80.909 35.3963 81.0684 35.6272 81.8896 35.8298C82.9863 36.104 83.4104 36.493 83.4104 37.1993C83.4104 38.1272 82.6419 38.658 81.5898 38.658Z" fill="#333333"/>
<path id="Vector_21" d="M86.786 35.8381L88.3068 38.0302L88.4392 38.1369H88.916V38.5704H86.7509V38.1369H87.3074L87.3695 38.0572L86.1499 36.219H85.4611V38.0045L85.5853 38.1369H86.1161V38.5704H83.9417V38.1369H84.5251L84.6575 38.0045V32.7006L84.5251 32.5764H83.9417V32.1172H85.091C85.3828 32.1172 85.4624 32.2671 85.4624 32.4616V35.803H86.1512L87.4857 34.4335L87.4505 34.3808H86.9373V33.9216H88.8201V34.3808H88.2717L88.1218 34.4875L86.7874 35.8395L86.786 35.8381Z" fill="#333333"/>
<path id="Vector_22" d="M90.0371 37.6763C90.3639 37.6763 90.5503 37.8708 90.5503 38.1625C90.5503 38.3043 90.4801 38.4272 90.418 38.5339L89.8521 39.6117C89.8426 39.6117 89.4806 39.4267 89.4806 39.4267L89.8345 38.7635L89.7818 38.6136C89.6049 38.5163 89.5252 38.3664 89.5252 38.1625C89.5252 37.8708 89.7021 37.6763 90.0384 37.6763H90.0371Z" fill="#333333"/>
<path id="Vector_23" d="M96.0291 36.4565H93.2266C93.2793 37.6315 93.8452 38.1272 94.7555 38.1272C95.2498 38.1272 95.6658 38.003 95.9048 37.8976V38.3568C95.6037 38.5243 95.162 38.658 94.4989 38.658C93.3144 38.658 92.3946 37.9503 92.3946 36.2985C92.3946 34.6467 93.2968 33.8323 94.3841 33.8323C95.3565 33.8323 96.152 34.4954 96.152 35.7326V36.3431L96.0278 36.4579L96.0291 36.4565ZM93.2266 35.9352H95.3389V35.6786C95.3389 34.7507 94.9324 34.3347 94.3665 34.3347C93.7304 34.3347 93.2968 34.856 93.2266 35.9352Z" fill="#333333"/>
<path id="Vector_24" d="M96.771 38.5689V38.1353H97.3545L97.4787 38.003V34.5116L97.3545 34.3793H96.771V33.9201H97.8677C98.1594 33.9201 98.2472 34.07 98.2472 34.2739V34.5211H98.2648C98.5295 34.2294 99.0333 33.8323 99.7059 33.8323C100.713 33.8323 101.067 34.4684 101.067 35.2464V38.0043L101.2 38.1367H101.783V38.5702H99.6086V38.1367H100.139L100.264 38.0043V35.3706C100.264 34.9114 100.139 34.4603 99.5033 34.4603C99.0441 34.4603 98.6632 34.6278 98.2837 35.0262V38.0043L98.416 38.1367H98.9468V38.5702H96.7723L96.771 38.5689Z" fill="#333333"/>
<path id="Vector_25" d="M106.501 38.5689H105.396C105.104 38.5689 105.025 38.419 105.025 38.215V37.9584H104.998C104.751 38.2501 104.317 38.6567 103.628 38.6567C102.718 38.6567 102.267 38.0556 102.267 37.3223C102.267 36.439 102.903 35.9609 103.725 35.9609H104.98V35.4571C104.98 34.8466 104.838 34.3428 104 34.3428C103.725 34.3428 103.461 34.4131 103.249 34.4752L103.124 34.59V35.3234H102.558V34.1389C102.93 34.0065 103.486 33.8296 104.22 33.8296C105.412 33.8296 105.784 34.5103 105.784 35.3328V37.9935L105.908 38.1353H106.5V38.5689H106.501ZM104.98 37.4911V36.4835H103.928C103.424 36.4835 103.08 36.6875 103.08 37.2966C103.08 37.7477 103.239 38.0394 103.902 38.0394C104.282 38.0394 104.663 37.8098 104.98 37.4911Z" fill="#333333"/>
<path id="Vector_26" d="M107.914 32.1171C108.206 32.1171 108.286 32.267 108.286 32.4615V34.4941C108.542 34.193 108.993 33.831 109.558 33.831C110.503 33.831 111.281 34.5819 111.281 36.2081C111.281 37.8342 110.468 38.6567 109.363 38.6567C108.86 38.6567 108.515 38.4271 108.259 38.1881H108.241V38.2151C108.241 38.419 108.153 38.5689 107.87 38.5689H106.765V38.1354H107.348L107.481 38.003V32.6992L107.348 32.5749H106.765V32.1157H107.914V32.1171ZM108.286 35.0168V37.6073C108.48 37.8288 108.816 38.1205 109.293 38.1286C109.991 38.1381 110.442 37.5276 110.442 36.2189C110.442 34.9817 110.053 34.4428 109.355 34.4428C108.966 34.4428 108.622 34.6373 108.286 35.0168Z" fill="#333333"/>
<path id="Vector_27" d="M112.995 32.1171C113.287 32.1171 113.367 32.267 113.367 32.4615V38.003L113.491 38.1354H114.084V38.5689H111.857V38.1354H112.44L112.573 38.003V32.6992L112.44 32.5749H111.857V32.1157H112.997L112.995 32.1171Z" fill="#333333"/>
<path id="Vector_28" d="M115.708 33.9202C115.99 33.9202 116.07 34.0702 116.07 34.2741V38.0045L116.194 38.1369H116.786V38.5704H114.549V38.1369H115.141L115.265 38.0045V34.5132L115.141 34.3808H114.549V33.9216H115.707L115.708 33.9202ZM115.584 32.1172C115.903 32.1172 116.078 32.3022 116.078 32.5858C116.078 32.8695 115.901 33.0626 115.584 33.0626C115.266 33.0626 115.088 32.8681 115.088 32.5858C115.088 32.3036 115.256 32.1172 115.584 32.1172Z" fill="#333333"/>
<path id="Vector_29" d="M117.246 38.5689V38.1353H117.829L117.954 38.003V34.5116L117.829 34.3793H117.246V33.9201H118.343C118.634 33.9201 118.722 34.07 118.722 34.2739V34.5211H118.74C119.004 34.2294 119.508 33.8323 120.181 33.8323C121.188 33.8323 121.542 34.4684 121.542 35.2464V38.0043L121.675 38.1367H122.258V38.5702H120.083V38.1367H120.614L120.739 38.0043V35.3706C120.739 34.9114 120.614 34.4603 119.978 34.4603C119.519 34.4603 119.138 34.6278 118.759 35.0262V38.0043L118.891 38.1367H119.422V38.5702H117.247L117.246 38.5689Z" fill="#333333"/>
<path id="Vector_30" d="M124.634 36.8281C124.352 36.8281 124.077 36.7929 123.848 36.7038C123.626 36.8105 123.503 36.9604 123.503 37.1373C123.503 37.367 123.645 37.5088 124.06 37.5088H125.447C126.287 37.5088 126.888 37.8883 126.888 38.6041C126.888 39.6292 125.828 40.16 124.537 40.16C123.352 40.16 122.636 39.8858 122.636 39.17C122.636 38.6217 123.033 38.3299 123.37 38.1706C123.016 38.0463 122.796 37.7721 122.796 37.4196C122.796 37.0671 123.025 36.7389 123.467 36.5174C123.095 36.2703 122.866 35.8813 122.866 35.3248C122.866 34.2997 123.671 33.8311 124.634 33.8311C124.873 33.8311 125.102 33.8662 125.315 33.9188H126.879V34.3781H126.101L126.083 34.3956C126.295 34.6252 126.419 34.9345 126.419 35.3235C126.419 36.3405 125.589 36.8267 124.634 36.8267V36.8281ZM123.848 38.234C123.68 38.3137 123.352 38.5528 123.352 39.012C123.352 39.4712 123.723 39.7008 124.589 39.7008C125.455 39.7008 126.136 39.4536 126.136 38.8081C126.136 38.4191 125.889 38.234 125.287 38.234H123.846H123.848ZM124.634 34.2741C124.05 34.2741 123.626 34.6185 123.626 35.3262C123.626 36.0339 124.05 36.3864 124.634 36.3864C125.217 36.3864 125.651 36.042 125.651 35.3262C125.651 34.6104 125.217 34.2741 124.634 34.2741Z" fill="#333333"/>
<path id="Vector_31" d="M130.837 34.3795V38.0031L130.961 38.1355H132.058V38.569C132.058 38.569 131.175 38.6568 130.829 38.6568C130.308 38.6568 130.033 38.4529 130.033 37.8789V34.3781H129.388V33.9364H129.909L130.033 33.8122L130.335 32.6453H130.838V33.9351H131.873V34.3767H130.838L130.837 34.3795Z" fill="#333333"/>
<path id="Vector_32" d="M134.063 38.1368H134.744V38.5703H132.419V38.1368H133.003L133.127 38.0044V34.5131L133.003 34.3807H132.419V33.9215H133.516C133.808 33.9215 133.895 34.0714 133.895 34.2754V34.5496H133.913C134.09 34.3456 134.594 33.8337 135.337 33.8337C135.478 33.8337 135.576 33.8513 135.655 33.8607V35.3194H135.152V34.6563L135.019 34.532C134.524 34.5671 134.144 34.8237 133.932 35.0533V38.0058L134.064 38.1381L134.063 38.1368Z" fill="#333333"/>
<path id="Vector_33" d="M140.426 38.5689H139.321C139.03 38.5689 138.95 38.419 138.95 38.215V37.9584H138.923C138.676 38.2501 138.242 38.6567 137.553 38.6567C136.643 38.6567 136.192 38.0556 136.192 37.3223C136.192 36.439 136.828 35.9609 137.651 35.9609H138.905V35.4571C138.905 34.8466 138.764 34.3428 137.925 34.3428C137.651 34.3428 137.386 34.4131 137.174 34.4752L137.05 34.59V35.3234H136.484V34.1389C136.855 34.0065 137.412 33.8296 138.145 33.8296C139.338 33.8296 139.709 34.5103 139.709 35.3328V37.9935L139.833 38.1353H140.425V38.5689H140.426ZM138.905 37.4911V36.4835H137.853C137.35 36.4835 137.005 36.6875 137.005 37.2966C137.005 37.7477 137.164 38.0394 137.828 38.0394C138.207 38.0394 138.588 37.8098 138.905 37.4911Z" fill="#333333"/>
<path id="Vector_34" d="M144.332 38.5689C144.041 38.5689 143.971 38.419 143.971 38.2151V37.9679H143.953C143.706 38.2691 143.228 38.6567 142.644 38.6567C141.689 38.6567 140.911 37.9139 140.911 36.2972C140.911 34.6805 141.716 33.831 142.829 33.831C143.298 33.831 143.66 34.016 143.916 34.2105V32.6992L143.792 32.5749H143.199V32.1157H144.357C144.639 32.1157 144.719 32.2656 144.719 32.4601V38.0017L144.851 38.134H145.435V38.5676H144.33L144.332 38.5689ZM143.916 37.4817V34.821C143.713 34.6089 143.386 34.3699 142.926 34.3699C142.219 34.3699 141.76 34.9804 141.76 36.2878C141.76 37.5168 142.149 38.0463 142.847 38.0463C143.226 38.0463 143.572 37.8612 143.916 37.4803V37.4817Z" fill="#333333"/>
<path id="Vector_35" d="M149.616 36.4565H146.814C146.866 37.6315 147.432 38.1272 148.343 38.1272C148.837 38.1272 149.253 38.003 149.492 37.8976V38.3568C149.191 38.5243 148.749 38.658 148.086 38.658C146.902 38.658 145.982 37.9503 145.982 36.2985C145.982 34.6467 146.884 33.8323 147.971 33.8323C148.944 33.8323 149.739 34.4954 149.739 35.7326V36.3431L149.615 36.4579L149.616 36.4565ZM146.814 35.9352H148.926V35.6786C148.926 34.7507 148.52 34.3347 147.954 34.3347C147.318 34.3347 146.884 34.856 146.814 35.9352Z" fill="#333333"/>
</g>
</g>
</svg>
