<?xml version="1.0" encoding="utf-8"?>
<!-- Generator: Adobe Illustrator 24.0.2, SVG Export Plug-In . SVG Version: 6.00 Build 0)  -->
<svg version="1.1" id="Capa_1" xmlns="http://www.w3.org/2000/svg" xmlns:xlink="http://www.w3.org/1999/xlink" x="0px" y="0px"
	 viewBox="0 0 546.8 208.6" style="enable-background:new 0 0 546.8 208.6;" xml:space="preserve">
<style type="text/css">
	.st0{fill:#FFFFFF;}
</style>
<g>
	<g>
		<g>
			<path class="st0" d="M155.5,81.9c0-22.3,17-37.6,37.5-37.6c17.7,0,32.5,11.1,34.5,27.8h-17.8c-2-7.9-8.8-12.6-16.8-12.6
				c-11.1,0-18.8,9.3-18.8,22.4c0,13.5,8,23.1,18.8,23.1c7.9,0,14.6-4.5,16.8-12.8h17.7c-2.7,17.5-17.8,27.9-34.8,27.9
				C171.9,120.2,155.5,105.2,155.5,81.9z"/>
			<path class="st0" d="M274.1,120.2c-20.6,0-37.9-14.3-37.9-38.4c0-23,17.8-37.5,37.2-37.5c19.6,0,36.5,13.3,36.5,39.1v3.9h-55.4
				c1.4,11.5,9.8,18.7,20.2,18.7c6.7,0,13.5-2.2,16.8-8.7h17.7C304.7,113.4,289.1,120.2,274.1,120.2z M254.3,74.7h37
				c-0.8-9.8-8.1-16.3-18.2-16.3C263.6,58.4,255.6,64.4,254.3,74.7z"/>
			<path class="st0" d="M319.1,95.7h17c1.3,7.7,7.9,11.2,16.3,11.2c6.9,0,13.5-2.7,13.5-8.4c0-5.2-4.9-7.4-14.6-9.1l-7.3-1.3
				c-14.6-2.7-23.4-9.3-23.4-20.6c0-14.6,13.3-23.3,29.7-23.3c15.9,0,29.2,8.1,31,22.7h-16.7c-1.7-6.2-7-9.3-14.7-9.3
				c-7,0-12.3,3.2-12.3,8.1c0,4.6,4.1,6.3,12.3,7.9l7.3,1.3c16,2.8,26,9.1,26,21.7c0,15.4-14.7,23.7-31,23.7
				C335,120.4,321,112.5,319.1,95.7z"/>
			<path class="st0" d="M392.4,81.9c0-22.3,17-37.6,37.5-37.6c17.7,0,32.5,11.1,34.5,27.8h-17.8c-2-7.9-8.8-12.6-16.8-12.6
				c-11.1,0-18.8,9.3-18.8,22.4c0,13.5,8,23.1,18.8,23.1c7.9,0,14.6-4.5,16.8-12.8h17.8c-2.7,17.5-17.8,27.9-34.8,27.9
				C408.8,120.2,392.4,105.2,392.4,81.9z"/>
			<path class="st0" d="M511,120.2c-20.6,0-37.9-14.3-37.9-38.4c0-23,17.8-37.5,37.2-37.5c19.6,0,36.5,13.3,36.5,39.1v3.9h-55.4
				c1.4,11.5,9.8,18.7,20.2,18.7c6.7,0,13.5-2.2,16.8-8.7h17.7C541.6,113.4,526,120.2,511,120.2z M491.3,74.7h37
				c-0.8-9.8-8.1-16.3-18.2-16.3C500.5,58.4,492.5,64.4,491.3,74.7z"/>
		</g>
		<g>
			<path class="st0" d="M0,60h23.3c8.2,0,14.9-6.7,14.9-14.9V33.6c0-4.1,3.3-7.4,7.4-7.4H110C99.1,10.4,80.9,0,60.3,0
				C27.1,0.1,0.2,26.9,0,60z"/>
			<path class="st0" d="M120.6,60.1h-67c-8.2,0-14.9,6.7-14.9,14.9v15.2c0,4.1-3.3,7.4-7.4,7.4H12.8c11,14.1,28.2,23.2,47.5,23.2
				c33.3,0,60.3-27,60.3-60.3C120.6,60.3,120.6,60.2,120.6,60.1z"/>
		</g>
	</g>
	<g>
		<path class="st0" d="M43.5,200.6c-1.9-0.6-3.4-1.3-4.4-2.3l1.7-3.8c1.1,0.8,2.4,1.5,3.9,2.1s3.1,0.8,4.7,0.8
			c1.9,0,3.4-0.3,4.3-0.9c1-0.6,1.4-1.4,1.4-2.5c0-0.7-0.3-1.4-0.8-1.8c-0.5-0.5-1.2-0.9-2-1.1c-0.8-0.3-1.9-0.6-3.4-0.9
			c-2-0.5-3.6-0.9-4.8-1.4s-2.3-1.2-3.2-2.2s-1.3-2.4-1.3-4.1c0-1.4,0.4-2.7,1.2-3.9c0.8-1.2,2-2.1,3.5-2.8s3.5-1,5.8-1
			c1.6,0,3.2,0.2,4.7,0.6s2.9,1,4,1.7l-1.5,3.8c-1.1-0.7-2.3-1.2-3.6-1.5c-1.2-0.3-2.4-0.5-3.6-0.5c-1.9,0-3.3,0.3-4.3,1
			c-0.9,0.6-1.4,1.5-1.4,2.6c0,0.7,0.3,1.4,0.8,1.8c0.5,0.5,1.2,0.8,2,1.1c0.8,0.3,1.9,0.6,3.4,0.9c1.9,0.4,3.5,0.9,4.8,1.4
			c1.2,0.5,2.3,1.2,3.2,2.2s1.3,2.3,1.3,4c0,1.4-0.4,2.7-1.2,3.9c-0.8,1.2-2,2.1-3.6,2.8c-1.6,0.7-3.5,1-5.8,1
			C47.3,201.4,45.4,201.1,43.5,200.6z"/>
		<path class="st0" d="M88.4,192.6H72.8c0.3,1.5,1,2.6,2.1,3.5c1.2,0.9,2.6,1.3,4.3,1.3c2.2,0,4-0.7,5.4-2.2l2.5,2.9
			c-0.9,1.1-2,1.9-3.4,2.4s-2.9,0.8-4.6,0.8c-2.2,0-4.1-0.4-5.8-1.3s-2.9-2.1-3.9-3.6c-0.9-1.6-1.4-3.3-1.4-5.3
			c0-1.9,0.4-3.7,1.3-5.2c0.9-1.6,2.1-2.8,3.7-3.6c1.6-0.9,3.3-1.3,5.3-1.3c1.9,0,3.7,0.4,5.2,1.3s2.7,2.1,3.6,3.6
			c0.9,1.6,1.3,3.3,1.3,5.4C88.5,191.5,88.5,192,88.4,192.6z M74.7,186c-1,0.9-1.7,2.1-1.9,3.5h11.3c-0.2-1.4-0.8-2.6-1.8-3.5
			s-2.3-1.3-3.8-1.3C77,184.7,75.7,185.1,74.7,186z"/>
		<path class="st0" d="M118.3,181.2v16.9c0,7-3.6,10.5-10.7,10.5c-1.9,0-3.7-0.2-5.4-0.7s-3.1-1.2-4.2-2.1l2.1-3.5
			c0.9,0.7,2,1.3,3.3,1.7c1.3,0.4,2.7,0.7,4,0.7c2.2,0,3.8-0.5,4.8-1.5s1.5-2.5,1.5-4.5v-1c-0.8,0.9-1.8,1.5-2.9,2
			c-1.1,0.4-2.4,0.7-3.8,0.7c-1.9,0-3.6-0.4-5.1-1.2s-2.7-1.9-3.6-3.4c-0.9-1.5-1.3-3.1-1.3-5s0.4-3.6,1.3-5s2.1-2.6,3.6-3.4
			s3.2-1.2,5.1-1.2c1.4,0,2.7,0.2,3.9,0.7s2.2,1.2,3,2.2v-2.6h4.4V181.2z M112,194.6c1.1-1.1,1.7-2.4,1.7-4.1s-0.6-3-1.7-4.1
			c-1.1-1-2.6-1.6-4.3-1.6c-1.8,0-3.2,0.5-4.4,1.6s-1.7,2.4-1.7,4.1s0.6,3.1,1.7,4.1c1.1,1.1,2.6,1.6,4.4,1.6
			C109.4,196.2,110.9,195.7,112,194.6z"/>
		<path class="st0" d="M149.3,181.2v19.9h-4.4v-2.5c-0.7,0.9-1.7,1.6-2.8,2.1c-1.1,0.5-2.3,0.7-3.6,0.7c-2.7,0-4.7-0.7-6.3-2.2
			c-1.5-1.5-2.3-3.7-2.3-6.6v-11.4h4.7v10.7c0,1.8,0.4,3.1,1.2,4c0.8,0.9,2,1.3,3.4,1.3c1.7,0,3-0.5,4-1.5s1.5-2.5,1.5-4.5v-10.1
			h4.6V181.2z"/>
		<path class="st0" d="M172.5,180.9v4.4c-0.4-0.1-0.8-0.1-1.1-0.1c-1.8,0-3.2,0.5-4.2,1.6s-1.5,2.6-1.5,4.6v9.6H161v-19.9h4.4v2.9
			C166.7,182,169.1,180.9,172.5,180.9z"/>
		<path class="st0" d="M185.3,200c-1.6-0.9-2.9-2.1-3.8-3.6c-0.9-1.6-1.4-3.3-1.4-5.3s0.5-3.7,1.4-5.2s2.2-2.7,3.8-3.6
			c1.6-0.9,3.4-1.3,5.4-1.3s3.9,0.4,5.5,1.3s2.9,2.1,3.8,3.6s1.4,3.3,1.4,5.2c0,2-0.5,3.7-1.4,5.3s-2.2,2.8-3.8,3.6
			c-1.6,0.9-3.4,1.3-5.5,1.3C188.7,201.3,186.9,200.9,185.3,200z M195,195.6c1.1-1.1,1.7-2.6,1.7-4.5s-0.6-3.4-1.7-4.5
			s-2.5-1.7-4.2-1.7s-3.1,0.6-4.2,1.7s-1.7,2.6-1.7,4.5s0.6,3.4,1.7,4.5s2.5,1.7,4.2,1.7S193.9,196.8,195,195.6z"/>
		<path class="st0" d="M212.8,200.7c-1.5-0.4-2.8-1-3.7-1.6l1.8-3.5c0.9,0.6,2,1.1,3.2,1.4c1.3,0.4,2.5,0.5,3.7,0.5
			c2.8,0,4.2-0.7,4.2-2.2c0-0.7-0.4-1.2-1.1-1.5s-1.8-0.5-3.4-0.8c-1.6-0.2-3-0.5-4-0.9c-1-0.3-1.9-0.9-2.7-1.7
			c-0.8-0.8-1.1-1.9-1.1-3.4c0-1.9,0.8-3.4,2.4-4.5s3.7-1.7,6.4-1.7c1.4,0,2.7,0.2,4.1,0.5s2.5,0.7,3.4,1.2l-1.8,3.5
			c-1.7-1-3.6-1.5-5.7-1.5c-1.4,0-2.4,0.2-3.1,0.6s-1.1,0.9-1.1,1.6s0.4,1.3,1.1,1.6c0.8,0.3,1.9,0.6,3.5,0.9
			c1.6,0.2,2.9,0.5,3.9,0.9c1,0.3,1.9,0.9,2.6,1.6c0.7,0.8,1.1,1.9,1.1,3.3c0,1.9-0.8,3.4-2.4,4.5s-3.8,1.7-6.6,1.7
			C215.9,201.3,214.4,201.1,212.8,200.7z"/>
		<path class="st0" d="M271.5,173.4V201H267v-2.6c-0.8,0.9-1.7,1.7-2.8,2.1c-1.1,0.5-2.4,0.7-3.7,0.7c-1.9,0-3.6-0.4-5.2-1.3
			c-1.5-0.8-2.7-2-3.6-3.6s-1.3-3.3-1.3-5.3s0.4-3.8,1.3-5.3s2.1-2.7,3.6-3.6c1.5-0.8,3.2-1.3,5.2-1.3c1.3,0,2.5,0.2,3.6,0.7
			c1.1,0.4,2,1.1,2.8,2v-10.2L271.5,173.4L271.5,173.4z M264,196.6c0.9-0.5,1.6-1.2,2.1-2.2c0.5-0.9,0.8-2,0.8-3.3
			c0-1.2-0.3-2.3-0.8-3.3c-0.5-0.9-1.2-1.7-2.1-2.2s-1.9-0.8-3-0.8s-2.1,0.3-3,0.8s-1.6,1.2-2.1,2.2c-0.5,0.9-0.8,2-0.8,3.3
			c0,1.2,0.3,2.3,0.8,3.3c0.5,0.9,1.2,1.7,2.1,2.2s1.9,0.8,3,0.8S263.1,197.1,264,196.6z"/>
		<path class="st0" d="M301.8,192.6h-15.6c0.3,1.5,1,2.6,2.1,3.5c1.2,0.9,2.6,1.3,4.3,1.3c2.2,0,4-0.7,5.4-2.2l2.5,2.9
			c-0.9,1.1-2,1.9-3.4,2.4s-2.9,0.8-4.6,0.8c-2.2,0-4.1-0.4-5.8-1.3c-1.7-0.9-2.9-2.1-3.9-3.6s-1.4-3.3-1.4-5.3
			c0-1.9,0.4-3.7,1.3-5.2c0.9-1.6,2.1-2.8,3.7-3.6c1.6-0.9,3.3-1.3,5.3-1.3c1.9,0,3.7,0.4,5.2,1.3s2.7,2.1,3.6,3.6
			c0.9,1.6,1.3,3.3,1.3,5.4C301.9,191.5,301.9,192,301.8,192.6z M288.1,186c-1,0.9-1.7,2.1-1.9,3.5h11.3c-0.2-1.4-0.8-2.6-1.8-3.5
			s-2.3-1.3-3.8-1.3C290.4,184.7,289.1,185.1,288.1,186z"/>
		<path class="st0" d="M339.8,200c-0.5,0.4-1.2,0.8-2,1s-1.6,0.3-2.5,0.3c-2.2,0-3.9-0.6-5.1-1.7s-1.8-2.8-1.8-5V185h-3.3v-3.7h3.3
			v-4.5h4.7v4.5h5.3v3.7h-5.3v9.5c0,1,0.2,1.7,0.7,2.2s1.2,0.8,2,0.8c1,0,1.9-0.3,2.6-0.8L339.8,200z"/>
		<path class="st0" d="M368.5,181.2v19.9h-4.4v-2.5c-0.7,0.9-1.7,1.6-2.8,2.1c-1.1,0.5-2.3,0.7-3.6,0.7c-2.7,0-4.7-0.7-6.3-2.2
			c-1.5-1.5-2.3-3.7-2.3-6.6v-11.4h4.7v10.7c0,1.8,0.4,3.1,1.2,4c0.8,0.9,2,1.3,3.4,1.3c1.7,0,3-0.5,4-1.5s1.5-2.5,1.5-4.5v-10.1
			h4.6V181.2z"/>
		<path class="st0" d="M414.6,192.6H399c0.3,1.5,1,2.6,2.1,3.5c1.2,0.9,2.6,1.3,4.3,1.3c2.2,0,4-0.7,5.4-2.2l2.5,2.9
			c-0.9,1.1-2,1.9-3.4,2.4s-2.9,0.8-4.6,0.8c-2.2,0-4.1-0.4-5.8-1.3s-2.9-2.1-3.9-3.6c-0.9-1.6-1.4-3.3-1.4-5.3
			c0-1.9,0.4-3.7,1.3-5.2c0.9-1.6,2.1-2.8,3.7-3.6c1.6-0.9,3.3-1.3,5.3-1.3c1.9,0,3.7,0.4,5.2,1.3s2.7,2.1,3.6,3.6
			c0.9,1.6,1.3,3.3,1.3,5.4C414.7,191.5,414.7,192,414.6,192.6z M400.9,186c-1,0.9-1.7,2.1-1.9,3.5h11.3c-0.2-1.4-0.8-2.6-1.8-3.5
			s-2.3-1.3-3.8-1.3C403.2,184.7,401.9,185.1,400.9,186z M406.4,173.3h5.5l-6.5,5.1h-4L406.4,173.3z"/>
		<path class="st0" d="M436.9,201.1l-5.1-6.9l-5.1,6.9h-5.1l7.7-10.1l-7.4-9.8h5.2l4.9,6.5l4.9-6.5h5l-7.4,9.7l7.8,10.2L436.9,201.1
			L436.9,201.1z"/>
		<path class="st0" d="M451.4,177.1c-0.6-0.5-0.9-1.2-0.9-2s0.3-1.5,0.9-2c0.6-0.5,1.3-0.8,2.1-0.8s1.6,0.3,2.1,0.8
			c0.6,0.5,0.9,1.1,0.9,1.9s-0.3,1.5-0.8,2.1c-0.6,0.6-1.3,0.8-2.1,0.8C452.6,177.9,451.9,177.6,451.4,177.1z M451.1,181.2h4.7v19.9
			h-4.7V181.2z"/>
		<path class="st0" d="M479.4,200c-0.5,0.4-1.2,0.8-2,1s-1.6,0.3-2.5,0.3c-2.2,0-3.9-0.6-5.1-1.7c-1.2-1.1-1.8-2.8-1.8-5V185h-3.3
			v-3.7h3.3v-4.5h4.7v4.5h5.3v3.7h-5.3v9.5c0,1,0.2,1.7,0.7,2.2s1.2,0.8,2,0.8c1,0,1.9-0.3,2.6-0.8L479.4,200z"/>
		<path class="st0" d="M491.7,200c-1.6-0.9-2.9-2.1-3.8-3.6c-0.9-1.6-1.4-3.3-1.4-5.3s0.5-3.7,1.4-5.2s2.2-2.7,3.8-3.6
			s3.4-1.3,5.4-1.3s3.9,0.4,5.5,1.3s2.9,2.1,3.8,3.6c0.9,1.5,1.4,3.3,1.4,5.2c0,2-0.5,3.7-1.4,5.3s-2.2,2.8-3.8,3.6
			c-1.6,0.9-3.4,1.3-5.5,1.3C495.1,201.3,493.3,200.9,491.7,200z M501.4,195.6c1.1-1.1,1.7-2.6,1.7-4.5s-0.6-3.4-1.7-4.5
			c-1.1-1.1-2.5-1.7-4.2-1.7s-3.1,0.6-4.2,1.7c-1.1,1.1-1.7,2.6-1.7,4.5s0.6,3.4,1.7,4.5c1.1,1.1,2.5,1.7,4.2,1.7
			C498.8,197.3,500.3,196.8,501.4,195.6z"/>
	</g>
</g>
</svg>
